<?xml version="1.0" standalone="no"?><!DOCTYPE svg PUBLIC "-//W3C//DTD SVG 1.1//EN" "http://www.w3.org/Graphics/SVG/1.1/DTD/svg11.dtd"><svg t="1689874590076" class="icon" viewBox="0 0 1033 1024" version="1.1" xmlns="http://www.w3.org/2000/svg" p-id="10418" xmlns:xlink="http://www.w3.org/1999/xlink" width="201.7578125" height="200"><path d="M908.378679 484.882386l15.031345 0 19.606547-119.835296 3.985778 119.835296 20.902052 0 3.985778-120.825856 21.417799 120.825856 14.791891 0-33.752732-177.946808 0-0.00614 0-79.951937 43.018769-14.176884L513.217734 30.688953 11.298324 212.800617l188.775434 66.62849 0 113.267716c0 17.763572 11.104919 33.308617 31.093159 48.863894l0 13.316284c0 102.163821 57.740052 191.005218 142.137231 237.647515-137.695059 48.850591-239.85888 166.564573-262.062578 310.919309l62.180178 0c31.094182-155.458631 171.007769-275.393187 339.794963-275.393187 168.794357 0 310.930565 119.934556 339.801103 275.393187l64.407915 0c-22.208814-142.137231-124.367519-262.068717-262.066671-310.919309C739.755214 645.883243 797.49629 557.041846 797.49629 454.878025l0-13.316284c19.98824-15.555278 31.093159-31.100322 31.093159-48.863894L828.589448 279.429107l109.751636-38.887682 0 68.851111L908.378679 484.882386 908.378679 484.882386zM515.445472 668.087964c-115.490338 0-208.765721-84.397179-217.653135-190.998055 57.749262 24.429389 137.700175 39.97341 217.653135 39.97341 77.727269 0 157.683299-15.544021 217.648019-39.97341C721.986525 583.691809 628.708072 668.087964 515.445472 668.087964L515.445472 668.087964zM766.403131 363.819123c0 8.885368-11.106965 19.99438-26.647917 31.095205 0 0-6.661723 2.219551-13.323447 6.661723-46.642297 26.653033-131.039475 53.301973-213.214033 53.301973-82.169441 0-164.338882-26.64894-210.978109-53.301973-6.662747-2.219551-11.110035-6.661723-11.110035-6.661723-17.762549-11.100826-28.867468-22.209838-28.867468-31.095205l2.221598-59.957557 250.961752 91.052762 250.961752-91.052762L766.407224 363.819123 766.403131 363.819123zM515.240811 312.851311l-334.693782-100.044554 334.693782-100.048647 332.872297 100.048647L515.240811 312.851311 515.240811 312.851311zM515.240811 312.851311" fill="#707070" p-id="10419"></path></svg>