<svg t="1689921303279" class="icon" viewBox="0 0 1024 1024" version="1.1" xmlns="http://www.w3.org/2000/svg" p-id="1763" width="200" height="200"><path d="M938.666667 213.333333h-128V85.333333h-85.333334v128h-85.333333a170.666667 170.666667 0 0 0-170.666667 170.666667v85.333333h-85.333333a170.666667 170.666667 0 0 0-170.666667 170.666667v85.333333H85.333333v85.333334h128v128h85.333334v-128h85.333333a170.666667 170.666667 0 0 0 170.666667-170.666667v-85.333333h85.333333a170.666667 170.666667 0 0 0 170.666667-170.666667v-85.333333h128zM469.333333 640a85.333333 85.333333 0 0 1-85.333333 85.333333h-85.333333v-85.333333a85.333333 85.333333 0 0 1 85.333333-85.333333h85.333333z m256-256a85.333333 85.333333 0 0 1-85.333333 85.333333h-85.333333v-85.333333a85.333333 85.333333 0 0 1 85.333333-85.333333h85.333333z" p-id="1764"></path></svg>